HIERARCHY
ROOT hip
{
	OFFSET 0.000000 0.000000 0.000000 
	CHANNELS 6 Xposition Yposition Zposition Xrotation Zrotation Yrotation
	JOINT abdomen
	{
		OFFSET 0.000000 3.402643 0.000000 
		CHANNELS 3 Xrotation Zrotation Yrotation
		JOINT chest
		{
			OFFSET 0.000000 8.438565 -0.680529 
			CHANNELS 3 Xrotation Zrotation Yrotation
			JOINT neck
			{
				OFFSET 0.000000 10.207942 -0.272212 
				CHANNELS 3 Xrotation Zrotation Yrotation
				JOINT head
				{
					OFFSET 0.000000 3.130431 0.000000 
					CHANNELS 3 Xrotation Zrotation Yrotation
					End Site
					{
						OFFSET 0.000000 3.130435 0.000000 
					}
				}
			}
			JOINT lCollar
			{
				OFFSET 3.470700 6.669187 -0.816635 
				CHANNELS 3 Yrotation Zrotation Xrotation
				JOINT lShldr
				{
					OFFSET 3.198488 0.000000 0.000000 
					CHANNELS 3 Zrotation Yrotation Xrotation
					JOINT lForeArm
					{
						OFFSET 10.139888 0.000000 0.000000 
						CHANNELS 3 Yrotation Zrotation Xrotation
						JOINT lHand
						{
							OFFSET 8.370511 0.000000 0.000000 
							CHANNELS 3 Zrotation Yrotation Xrotation
							End Site
							{
								OFFSET 4.083176 0.000000 0.000000 
							}
						}
					}
				}
			}
			JOINT rCollar
			{
				OFFSET -3.470700 6.669187 -0.816635 
				CHANNELS 3 Yrotation Zrotation Xrotation
				JOINT rShldr
				{
					OFFSET -3.198488 0.000000 0.000000 
					CHANNELS 3 Zrotation Yrotation Xrotation
					JOINT rForeArm
					{
						OFFSET -10.139888 0.000000 0.000000 
						CHANNELS 3 Yrotation Zrotation Xrotation
						JOINT rHand
						{
							OFFSET -8.370511 0.000000 0.000000 
							CHANNELS 3 Zrotation Yrotation Xrotation
							End Site
							{
								OFFSET -4.083176 0.000000 0.000000 
							}
						}
					}
				}
			}
		}
	}
	JOINT lThigh
	{
		OFFSET 5.308129 -1.633274 1.361059 
		CHANNELS 3 Xrotation Zrotation Yrotation
		JOINT lShin
		{
			OFFSET -2.041588 -20.007561 0.000000 
			CHANNELS 3 Xrotation Zrotation Yrotation
			JOINT lFoot
			{
				OFFSET 0.000000 -19.190928 -1.224953 
				CHANNELS 3 Xrotation Yrotation Zrotation
				End Site
				{
					OFFSET 0.000000 -2.449906 4.627600 
				}
			}
		}
	}
	JOINT rThigh
	{
		OFFSET -5.308129 -1.633274 1.361059 
		CHANNELS 3 Xrotation Zrotation Yrotation
		JOINT rShin
		{
			OFFSET 2.041588 -20.007561 0.000000 
			CHANNELS 3 Xrotation Zrotation Yrotation
			JOINT rFoot
			{
				OFFSET 0.000000 -19.190928 -1.224953 
				CHANNELS 3 Xrotation Yrotation Zrotation
				End Site
				{
					OFFSET 0.000000 -2.449906 4.627600 
				}
			}
		}
	}
}
MOTION
Frames: 11
Frame Time: 0.033000
96.313637 47.785416 83.775795 54.046009 -22.766624 14.269625 25.210184 -1.134830 -0.276012 -20.839844 0.000000 0.000000 -15.050595 -2.306787 11.888437 -2.520832 -1.255077 0.218355 -4.754609 -0.109184 -0.002653 -75.694466 -6.130392 50.095745 -15.714342 -0.232706 -24.777262 19.482155 -25.043125 -3.223154 4.754609 0.109184 -0.002672 55.886665 18.208113 30.139200 104.931175 -0.270143 12.503224 -22.104841 -0.329531 0.286245 -88.494865 10.068212 0.821842 73.573364 -0.583312 1.513155 4.965035 -0.012752 6.211886 -56.033211 -3.203121 -7.485238 36.066956 3.075853 5.290105 -0.940721 0.093617 -0.717969 
100.472557 47.607719 88.705864 54.054543 -22.843496 14.625126 25.154259 -1.395158 -0.386167 -20.839844 0.000000 0.000000 -15.408789 -1.962160 11.804243 -2.520832 -1.255077 0.218355 -4.754609 -0.109184 -0.002653 -75.742714 -6.781839 51.043533 -12.926181 -0.258711 -27.137598 17.699162 -24.512730 -2.823159 4.754609 0.109184 -0.002672 54.782272 23.315701 28.179056 102.357758 -0.265762 12.334942 -23.895046 -1.914653 0.620327 -97.093857 11.151755 0.176698 71.234848 -0.611705 4.451115 1.861033 -0.056490 5.428988 -50.870972 -5.273110 -2.224997 37.461521 2.974336 4.338203 12.513581 0.333324 4.718579 
104.688408 47.323936 93.610512 53.355068 -23.462976 15.883754 25.135576 -1.464514 -0.450424 -20.839844 0.000000 0.000000 -15.429093 -1.184716 11.090325 -2.520832 -1.255077 0.218355 -4.754609 -0.109184 -0.002653 -74.718712 -8.930493 51.629520 -12.405072 -0.264649 -27.747677 16.756321 -24.442123 -2.629207 4.754609 0.109184 -0.002672 53.880939 22.105797 27.691801 99.733017 -0.203566 10.575639 -24.841663 -2.279863 0.724697 -100.590736 11.522915 1.755856 63.444412 -1.107638 4.375256 -0.374345 -0.040070 2.860398 -47.522533 -6.581177 1.557065 41.887474 2.825472 5.906524 20.004915 0.742129 4.996205 
108.905190 47.064507 98.388802 51.986252 -24.417376 17.838697 25.173403 -1.347896 -0.482853 -20.839844 0.000000 0.000000 -15.134252 -0.149521 9.990743 -2.520832 -1.255077 0.218355 -4.754609 -0.109184 -0.002653 -72.866035 -12.285725 51.763355 -14.244864 -0.251353 -26.813200 17.000332 -25.028790 -2.760404 4.754609 0.109184 -0.002672 54.261574 16.130741 28.751291 96.261505 -0.110695 7.733988 -24.334579 -1.895482 0.630785 -98.792488 10.848248 5.372798 52.504684 -1.898121 1.613877 -0.876152 -0.020479 0.243453 -48.036045 -7.333732 3.569928 50.785862 2.492728 8.739532 22.146486 0.999147 5.779800 
113.010826 46.812698 102.952278 50.107494 -25.501793 20.205755 25.258543 -1.061451 -0.468563 -20.839844 0.000000 0.000000 -14.603361 0.989230 8.740198 -2.520832 -1.255077 0.218355 -4.754609 -0.109184 -0.002653 -70.415825 -16.509859 50.846130 -19.030451 -0.281450 -24.082457 18.761477 -25.840796 -3.045174 4.754609 0.109184 -0.002672 56.429581 8.398521 30.213772 90.136742 0.008958 4.309911 -21.545547 -1.734834 0.509601 -94.010963 9.100872 9.502855 42.660999 -2.678415 -2.282730 -0.251502 -0.149431 -1.510019 -53.559120 -7.450793 4.420347 63.712093 1.769596 11.010849 20.214081 0.944568 6.144504 
116.922997 46.436501 107.324921 48.013657 -26.541935 22.645754 25.363058 -0.655439 -0.440072 -20.839844 0.000000 0.000000 -13.911602 2.066191 7.559161 -2.520832 -1.255077 0.218355 -4.754609 -0.109184 -0.002653 -67.380974 -21.136150 47.866932 -27.346180 -0.527382 -18.779945 21.749294 -25.229656 -3.408322 4.754609 0.109184 -0.002672 60.606770 1.953289 30.452669 79.706337 0.106926 1.891773 -16.699896 -1.925842 0.385529 -89.618950 7.256010 12.722906 39.347198 -3.101919 -6.074287 -0.697352 -0.300963 -2.272712 -64.273407 -6.865158 4.753739 77.905563 0.762584 11.356373 17.185658 0.669648 5.527472 
120.718361 45.807491 111.734085 46.018166 -27.440893 24.823303 25.488205 -0.197098 -0.385101 -20.839844 0.000000 0.000000 -13.112984 2.973301 6.564298 -2.520832 -1.255077 0.218355 -4.754609 -0.109184 -0.002653 -63.782177 -25.500111 43.471855 -38.244720 -0.471252 -12.406754 23.924520 -21.897684 -3.450197 4.754609 0.109184 -0.002672 66.532799 -1.157946 28.597689 64.217636 0.121345 2.156210 -11.391224 -0.497491 0.065220 -87.289413 6.472756 14.260603 45.115631 -2.933375 -8.857748 -3.370301 -0.286473 -2.061821 -79.102203 -5.576779 4.776734 89.095573 -0.184804 8.716829 15.364033 0.419726 4.200908 
124.609215 45.010944 116.461113 44.338352 -28.112730 26.522892 25.605194 0.256926 -0.319331 -20.839844 0.000000 0.000000 -12.211934 3.601225 5.843873 -2.520832 -1.255077 0.218355 -4.754609 -0.109184 -0.002653 -60.017746 -28.687706 37.767166 -48.532326 -0.389437 -7.127457 23.721684 -17.782305 -2.701274 4.754609 0.109184 -0.002672 73.283096 0.356036 25.036085 43.622841 0.076845 4.941524 -7.475960 4.688226 -0.394160 -85.105148 6.561796 13.926122 55.407818 -2.339392 -9.680810 -5.776221 -0.242544 -1.288187 -94.451942 -3.925905 4.189336 92.767838 -0.801175 2.878372 13.969702 0.188550 2.641178 
128.683838 44.284958 121.526146 43.133137 -28.492050 27.588278 25.694202 0.634786 -0.245197 -20.839844 0.000000 0.000000 -11.214806 3.888299 5.428737 -2.520832 -1.255077 0.218355 -4.754609 -0.109184 -0.002653 -56.920258 -30.049833 32.600681 -55.659176 -0.339184 -4.020928 22.507187 -14.869851 -2.036246 4.754609 0.109184 -0.002672 80.822670 9.852054 21.577969 12.288836 -0.299807 8.019608 -6.522145 16.957001 -0.606819 -80.697456 6.355859 12.343157 64.379585 -1.704033 -8.400201 -7.824024 -0.764539 4.388039 -104.844727 -2.959940 2.551350 87.159676 -0.771592 -3.466096 9.914684 -0.055951 1.763840 
132.821426 43.759003 126.739998 42.411572 -28.506449 27.967279 25.764042 0.882407 -0.157400 -20.839844 0.000000 0.000000 -10.130480 3.810585 5.325260 -2.520832 -1.255077 0.218355 -4.754609 -0.109184 -0.002653 -55.222645 -29.458832 29.422150 -59.023819 -0.314917 -2.668989 21.826679 -13.554070 -1.741685 4.754609 0.109184 -0.002672 82.686386 12.265837 20.065659 2.688304 -0.335150 10.023891 -6.257885 19.830669 -0.666967 -75.293266 6.689902 9.866079 70.029541 -1.277737 -7.296378 -4.195497 -0.594912 4.600068 -107.471107 -2.910537 -0.400889 74.208282 -0.055563 -5.871978 5.328245 -0.234417 1.637349 
136.894455 43.434090 131.934647 42.155720 -28.132290 27.702734 25.813663 0.961454 -0.064395 -20.839844 0.000000 0.000000 -9.048516 3.382405 5.515968 -2.520832 -1.255077 0.218355 -4.754609 -0.109184 -0.002653 -55.326160 -27.199358 28.971077 -58.645016 -0.313678 -2.537208 22.415241 -13.663546 -1.818369 4.754609 0.109184 -0.002672 82.539909 12.755908 20.494743 2.688452 -0.335985 10.082478 -5.622040 19.329048 -0.548988 -70.691826 7.372872 7.370561 71.968338 -1.109897 -6.885252 4.264619 -0.230217 1.395130 -103.969437 -2.509649 -4.032986 57.888641 1.074072 -4.653399 4.317552 -0.281723 1.274706 
